<?xml version="1.0" encoding="utf-8"?>
<!-- Generator: Adobe Illustrator 16.0.3, SVG Export Plug-In . SVG Version: 6.00 Build 0)  -->
<!DOCTYPE svg PUBLIC "-//W3C//DTD SVG 1.1//EN" "http://www.w3.org/Graphics/SVG/1.1/DTD/svg11.dtd">
<svg version="1.1" id="Layer_1" xmlns="http://www.w3.org/2000/svg" xmlns:xlink="http://www.w3.org/1999/xlink" x="0px" y="0px"
	 width="500px" height="500px" viewBox="0 0 500 500" enable-background="new 0 0 500 500" xml:space="preserve">
<path fill="#7BF9FF" d="M250,0C111.929,0,0,111.929,0,250c0,138.07,111.929,250,250,250c138.071,0,250-111.93,250-250
	C500,111.929,388.071,0,250,0z M250,488.733C118.151,488.733,11.267,381.848,11.267,250C11.267,118.151,118.151,11.267,250,11.267
	c131.848,0,238.733,106.884,238.733,238.733C488.733,381.848,381.848,488.733,250,488.733z"/>
<circle fill="#7BF9FF" stroke="#7BF9FF" stroke-miterlimit="10" cx="250" cy="250" r="220.5"/>
<g>
	
		<line fill="none" stroke="#FFFFFF" stroke-width="6" stroke-linecap="round" stroke-miterlimit="10" x1="368.791" y1="368.791" x2="131.208" y2="131.209"/>
	
		<line fill="none" stroke="#FFFFFF" stroke-width="6" stroke-linecap="round" stroke-miterlimit="10" x1="131.208" y1="368.791" x2="368.791" y2="131.209"/>
</g>
<text transform="matrix(1 0 0 1 213.3276 158.1514)" fill="#FFFFFF" font-family="'HelveticaNeue-Bold'" font-size="79.4319">W</text>
<g>
	<g>
		<path fill="#FFFFFF" d="M201.459,366.039c-0.023,0.967,0.081,1.804,0.313,2.52c0.232,0.717,0.564,1.321,0.998,1.819
			c0.433,0.497,0.936,0.888,1.51,1.166c0.572,0.278,1.197,0.464,1.874,0.55c0.73,0.092,1.356,0.055,1.879-0.115
			c0.522-0.172,0.948-0.426,1.277-0.759c0.33-0.334,0.571-0.735,0.725-1.202c0.154-0.467,0.236-0.947,0.247-1.442
			c0.023-1.015-0.126-1.777-0.445-2.287c-0.319-0.511-0.672-0.878-1.06-1.106c-0.669-0.399-1.45-0.789-2.341-1.166
			c-0.892-0.377-1.989-0.863-3.292-1.447c-0.811-0.353-1.48-0.78-2.011-1.281c-0.531-0.501-0.948-1.043-1.255-1.625
			c-0.306-0.581-0.518-1.189-0.636-1.824c-0.118-0.635-0.169-1.273-0.154-1.924c0.03-1.252,0.255-2.325,0.677-3.234
			c0.422-0.906,0.968-1.664,1.641-2.268c0.672-0.604,1.429-1.057,2.272-1.352c0.843-0.295,1.69-0.447,2.543-0.447
			c0.996,0,1.929,0.177,2.801,0.535c0.872,0.356,1.633,0.897,2.284,1.623c0.651,0.727,1.161,1.625,1.53,2.695
			c0.368,1.071,0.538,2.312,0.508,3.717c-1.113-0.043-2.226-0.086-3.339-0.133c-0.051-1.705-0.442-2.923-1.173-3.638
			c-0.731-0.718-1.674-1.081-2.83-1.104c-0.391-0.008-0.792,0.039-1.204,0.137c-0.412,0.1-0.789,0.271-1.132,0.513
			c-0.344,0.241-0.632,0.571-0.864,0.992c-0.233,0.42-0.356,0.946-0.372,1.588c-0.021,0.899,0.17,1.612,0.576,2.146
			c0.405,0.534,0.942,0.955,1.611,1.258c0.071,0.027,0.349,0.146,0.833,0.355c0.484,0.209,1.027,0.441,1.627,0.697
			c0.6,0.255,1.187,0.506,1.76,0.749c0.574,0.243,0.985,0.424,1.232,0.536c0.618,0.312,1.153,0.718,1.606,1.219
			c0.453,0.502,0.83,1.07,1.128,1.706c0.299,0.634,0.518,1.31,0.654,2.022c0.137,0.715,0.198,1.424,0.183,2.127
			c-0.032,1.506-0.278,2.774-0.739,3.795c-0.461,1.02-1.057,1.821-1.787,2.406c-0.73,0.586-1.553,0.969-2.471,1.152
			c-0.917,0.184-1.848,0.203-2.791,0.062c-1.086-0.158-2.104-0.496-3.054-1.002c-0.95-0.507-1.771-1.182-2.461-2.017
			c-0.692-0.834-1.236-1.845-1.634-3.028c-0.398-1.183-0.587-2.531-0.569-4.055C199.242,365.796,200.35,365.919,201.459,366.039z"/>
		<path fill="#FFFFFF" d="M216.952,349.26c2.8,0.008,5.601,0.014,8.401,0.02c1.351,0.003,2.449,0.293,3.295,0.875
			c0.846,0.586,1.495,1.314,1.947,2.195c0.451,0.877,0.756,1.838,0.913,2.875c0.157,1.039,0.23,1.996,0.22,2.873
			c-0.011,0.877-0.107,1.824-0.29,2.844c-0.183,1.019-0.513,1.957-0.99,2.816c-0.478,0.859-1.151,1.557-2.021,2.087
			c-0.869,0.532-1.986,0.763-3.35,0.693c-1.704-0.086-3.406-0.183-5.107-0.285c-0.065,3.524-0.13,7.051-0.196,10.577
			c-1.124-0.109-2.247-0.227-3.369-0.348C216.589,367.409,216.771,358.335,216.952,349.26z M220.044,362.314
			c1.636,0.078,3.273,0.149,4.911,0.215c0.376,0.015,0.762-0.049,1.158-0.191s0.762-0.385,1.099-0.729
			c0.336-0.344,0.612-0.81,0.826-1.396c0.213-0.586,0.327-1.329,0.34-2.227c0.013-0.922-0.065-1.688-0.235-2.299
			c-0.169-0.608-0.404-1.094-0.701-1.453c-0.298-0.357-0.643-0.604-1.032-0.743c-0.39-0.136-0.808-0.206-1.253-0.212
			c-1.648-0.021-3.295-0.047-4.943-0.072C220.157,356.242,220.101,359.277,220.044,362.314z"/>
		<path fill="#FFFFFF" d="M234.742,349.293c1.111,0.002,2.223,0.003,3.334,0.004c-0.066,8.137-0.132,16.271-0.198,24.408
			c3.279,0.107,6.561,0.173,9.844,0.191c-0.002,1.463-0.004,2.924-0.007,4.385c-4.426-0.031-8.851-0.156-13.268-0.375
			C234.546,368.368,234.644,358.831,234.742,349.293z"/>
		<path fill="#FFFFFF" d="M255.148,349.301c1.183,0,2.365-0.001,3.547-0.002c2.504,9.62,5.055,19.169,7.646,28.562
			c-1.212,0.062-2.425,0.119-3.638,0.17c-0.629-2.512-1.254-5.029-1.877-7.555c-2.569,0.065-5.141,0.108-7.713,0.129
			c-0.6,2.562-1.2,5.121-1.807,7.683c-1.169,0.005-2.34,0.003-3.51-0.005C250.297,368.641,252.747,358.95,255.148,349.301z
			 M254.023,366.743c1.961-0.017,3.924-0.043,5.885-0.082c-0.99-4.113-1.975-8.242-2.948-12.382c-0.026,0-0.054,0-0.08,0
			C255.936,358.428,254.984,362.584,254.023,366.743z"/>
		<path fill="#FFFFFF" d="M270.283,368.176c0.015,1.086,0.152,2.006,0.415,2.758c0.263,0.754,0.622,1.361,1.079,1.823
			s0.979,0.785,1.568,0.97c0.59,0.186,1.227,0.252,1.91,0.201c0.737-0.053,1.365-0.224,1.883-0.511s0.934-0.638,1.25-1.051
			s0.541-0.876,0.678-1.392c0.133-0.514,0.195-1.027,0.187-1.543c-0.021-1.06-0.198-1.828-0.539-2.312
			c-0.341-0.484-0.71-0.818-1.108-1.005c-0.687-0.325-1.484-0.629-2.396-0.912s-2.032-0.659-3.367-1.137
			c-0.827-0.283-1.521-0.676-2.073-1.176c-0.554-0.5-0.994-1.063-1.324-1.692c-0.33-0.628-0.567-1.302-0.709-2.017
			c-0.145-0.717-0.219-1.445-0.229-2.19c-0.017-1.438,0.17-2.683,0.559-3.737c0.39-1.053,0.906-1.925,1.558-2.617
			c0.649-0.691,1.39-1.201,2.22-1.531c0.832-0.33,1.674-0.494,2.526-0.494c0.995,0,1.937,0.189,2.823,0.564
			c0.886,0.375,1.67,0.936,2.351,1.676c0.683,0.74,1.229,1.651,1.642,2.731c0.412,1.081,0.633,2.333,0.66,3.765
			c-1.113,0.035-2.229,0.07-3.345,0.104c-0.121-1.78-0.562-3.032-1.323-3.76c-0.761-0.728-1.72-1.088-2.877-1.074
			c-0.393,0.004-0.792,0.066-1.199,0.188c-0.408,0.123-0.779,0.325-1.115,0.605c-0.334,0.281-0.609,0.658-0.825,1.139
			c-0.218,0.479-0.319,1.073-0.31,1.788c0.014,1.004,0.233,1.784,0.662,2.341c0.428,0.559,0.982,0.971,1.668,1.239
			c0.07,0.022,0.354,0.126,0.851,0.308c0.493,0.182,1.047,0.377,1.659,0.592c0.61,0.213,1.209,0.418,1.795,0.613
			c0.584,0.197,1.004,0.342,1.256,0.434c0.631,0.257,1.183,0.617,1.656,1.08c0.476,0.466,0.875,1.002,1.199,1.609
			c0.324,0.608,0.569,1.264,0.736,1.967c0.166,0.705,0.256,1.414,0.27,2.127c0.03,1.528-0.162,2.853-0.58,3.979
			c-0.42,1.126-0.98,2.07-1.688,2.831c-0.706,0.763-1.516,1.349-2.428,1.756c-0.913,0.407-1.848,0.653-2.805,0.731
			c-1.1,0.092-2.142-0.024-3.121-0.352c-0.98-0.326-1.838-0.88-2.57-1.658c-0.733-0.779-1.324-1.808-1.771-3.076
			c-0.447-1.271-0.69-2.787-0.729-4.545C268.036,368.271,269.16,368.227,270.283,368.176z"/>
		<path fill="#FFFFFF" d="M285.048,349.255c1.111-0.003,2.222-0.006,3.333-0.01c0.078,3.526,0.155,7.052,0.233,10.578
			c2.896-0.152,5.786-0.321,8.673-0.507c-0.08-3.366-0.16-6.733-0.24-10.101c1.11-0.004,2.223-0.009,3.332-0.013
			c0.198,8.288,0.396,16.576,0.594,24.863c-1.104,0.187-2.213,0.365-3.322,0.539c-0.09-3.815-0.182-7.633-0.271-11.449
			c-2.885,0.253-5.777,0.482-8.675,0.688c0.088,3.998,0.176,7.995,0.265,11.992c-1.117,0.143-2.236,0.277-3.355,0.407
			C285.423,367.248,285.234,358.252,285.048,349.255z"/>
		<path fill="#FFFFFF" d="M171.625,376.514c1.062,0.42,2.129,0.832,3.2,1.232c1.055,5.477,2.083,11.154,3.092,17.023
			c0.017,0.01,0.033,0.019,0.05,0.026c1.255-4.616,2.548-9.479,3.87-14.565c1.096,0.365,2.196,0.723,3.3,1.068
			c1.099,6.065,2.183,12.317,3.258,18.739c0.017,0.008,0.035,0.016,0.052,0.022c1.266-5.362,2.551-10.92,3.851-16.651
			c1.11,0.305,2.222,0.603,3.338,0.888c-1.921,7.672-3.822,15.019-5.686,21.993c-1.09-0.53-2.175-1.076-3.254-1.637
			c-1.097-6.425-2.205-12.675-3.328-18.729c-0.017-0.006-0.034-0.013-0.051-0.019c-1.346,5.116-2.663,10.007-3.944,14.651
			c-1.068-0.642-2.129-1.298-3.183-1.971C174.712,390.854,173.198,383.48,171.625,376.514z"/>
		<path fill="#FFFFFF" d="M202.867,386.021c1.18,0.261,2.363,0.511,3.549,0.75c2.251,9.174,4.519,18.646,6.822,28.322
			c-1.214-0.336-2.424-0.688-3.63-1.06c-0.551-2.526-1.101-5.037-1.649-7.531c-2.554-0.735-5.092-1.54-7.609-2.413
			c-0.645,2.02-1.288,4.01-1.929,5.97c-1.133-0.459-2.262-0.934-3.386-1.424C197.613,401.562,200.233,393.997,202.867,386.021z
			 M201.333,401.027c1.93,0.614,3.87,1.192,5.82,1.732c-0.871-4.018-1.739-7.99-2.604-11.91c-0.027-0.007-0.054-0.014-0.081-0.02
			C203.421,394.299,202.375,397.699,201.333,401.027z"/>
		<path fill="#FFFFFF" d="M213.453,388.072c1.168,0.195,2.338,0.382,3.511,0.559c1.472,7.446,2.96,15.006,4.469,22.649
			c0.018,0.004,0.037,0.008,0.055,0.011c1.8-6.999,3.589-14.143,5.361-21.398c1.154,0.121,2.309,0.232,3.465,0.336
			c-2.341,9.269-4.715,18.367-7.11,27.231c-1.277-0.253-2.551-0.524-3.822-0.814C217.375,406.952,215.402,397.405,213.453,388.072z"
			/>
		<path fill="#FFFFFF" d="M232.253,390.393c4.684,0.373,9.382,0.599,14.084,0.674c-0.003,1.461-0.007,2.922-0.011,4.383
			c-3.569-0.063-7.136-0.221-10.694-0.473c-0.023,2.502-0.047,5.006-0.071,7.509c3.309,0.271,6.626,0.447,9.945,0.53
			c-0.004,1.379-0.008,2.759-0.012,4.139c-3.328-0.09-6.654-0.28-9.971-0.572c-0.026,2.798-0.053,5.596-0.079,8.394
			c3.667,0.367,7.347,0.595,11.029,0.683c-0.003,1.461-0.006,2.922-0.01,4.383c-4.858-0.123-9.712-0.504-14.539-1.141
			C232.034,409.396,232.144,399.894,232.253,390.393z"/>
		<path fill="#FFFFFF" d="M257.148,390.979c2.881-0.094,5.759-0.242,8.631-0.446c1.386-0.099,2.52,0.101,3.4,0.606
			c0.883,0.506,1.565,1.168,2.051,1.99c0.485,0.824,0.822,1.736,1.012,2.745c0.188,1.008,0.287,1.945,0.301,2.815
			c0.012,0.867-0.062,1.819-0.221,2.857c-0.16,1.037-0.473,2.021-0.937,2.954c-0.465,0.934-1.134,1.742-2.01,2.419
			c-0.875,0.677-2.015,1.096-3.414,1.236c-1.751,0.176-3.505,0.321-5.26,0.439c0.024,3.687,0.052,7.371,0.077,11.059
			c-1.162,0.092-2.326,0.169-3.491,0.229C257.243,410.251,257.195,400.615,257.148,390.979z M260.674,404.481
			c1.688-0.105,3.371-0.236,5.055-0.393c0.385-0.035,0.779-0.153,1.183-0.354c0.401-0.199,0.771-0.497,1.106-0.893
			c0.336-0.395,0.604-0.901,0.809-1.521c0.204-0.619,0.3-1.382,0.289-2.284c-0.012-0.928-0.112-1.688-0.303-2.281
			c-0.19-0.594-0.443-1.056-0.758-1.387c-0.315-0.33-0.676-0.544-1.078-0.645c-0.403-0.101-0.834-0.132-1.291-0.097
			c-1.69,0.131-3.385,0.241-5.078,0.329C260.629,398.133,260.65,401.308,260.674,404.481z"/>
		<path fill="#FFFFFF" d="M283.619,387.876c1.441-0.219,2.738-0.048,3.896,0.503c1.156,0.553,2.142,1.375,2.957,2.475
			c0.816,1.1,1.453,2.426,1.911,3.989c0.458,1.566,0.709,3.268,0.753,5.12c0.043,1.879-0.128,3.704-0.51,5.49
			c-0.383,1.785-0.954,3.426-1.717,4.92c-0.764,1.493-1.708,2.782-2.84,3.851c-1.133,1.065-2.426,1.805-3.881,2.183
			s-2.772,0.314-3.948-0.185c-1.177-0.5-2.179-1.342-3.007-2.514c-0.83-1.172-1.473-2.617-1.933-4.325
			c-0.459-1.708-0.702-3.576-0.733-5.595c-0.03-1.992,0.154-3.911,0.555-5.749c0.4-1.836,0.988-3.473,1.766-4.906
			c0.777-1.433,1.732-2.611,2.867-3.542C280.891,388.659,282.18,388.096,283.619,387.876z M283.697,391.768
			c-1.028,0.17-1.912,0.604-2.652,1.312c-0.74,0.707-1.337,1.593-1.791,2.66s-0.783,2.255-0.988,3.562
			c-0.205,1.308-0.298,2.623-0.273,3.946c0.021,1.323,0.158,2.604,0.41,3.831c0.248,1.229,0.619,2.297,1.113,3.195
			c0.491,0.899,1.123,1.563,1.892,1.985c0.768,0.424,1.671,0.509,2.706,0.255s1.922-0.775,2.66-1.552
			c0.738-0.773,1.33-1.708,1.778-2.794c0.447-1.085,0.771-2.266,0.97-3.541c0.197-1.273,0.283-2.543,0.254-3.808
			c-0.026-1.266-0.166-2.478-0.418-3.645s-0.621-2.18-1.108-3.046c-0.488-0.865-1.112-1.518-1.871-1.958
			C285.618,391.73,284.727,391.596,283.697,391.768z"/>
		<path fill="#FFFFFF" d="M303.93,383.799c1.405-0.354,2.671-0.344,3.795,0.012c1.124,0.354,2.078,0.963,2.865,1.822
			c0.787,0.862,1.397,1.938,1.832,3.237c0.436,1.303,0.668,2.746,0.7,4.354c0.033,1.633-0.138,3.253-0.509,4.885
			c-0.373,1.63-0.923,3.174-1.654,4.632c-0.73,1.458-1.634,2.777-2.715,3.942c-1.082,1.162-2.316,2.07-3.712,2.682
			c-1.396,0.609-2.661,0.796-3.796,0.549s-2.108-0.845-2.918-1.783c-0.81-0.938-1.442-2.167-1.898-3.671
			c-0.457-1.504-0.707-3.194-0.75-5.053c-0.043-1.834,0.125-3.63,0.505-5.371s0.945-3.313,1.697-4.718
			c0.753-1.401,1.683-2.582,2.787-3.551C301.266,384.798,302.523,384.15,303.93,383.799z M304.012,387.285
			c-1.001,0.275-1.861,0.771-2.58,1.5c-0.72,0.729-1.299,1.605-1.736,2.634c-0.438,1.029-0.754,2.153-0.947,3.373
			c-0.193,1.221-0.277,2.438-0.248,3.645c0.027,1.206,0.168,2.357,0.417,3.441c0.248,1.085,0.612,2.003,1.095,2.742
			c0.479,0.741,1.092,1.242,1.834,1.494c0.74,0.255,1.611,0.174,2.605-0.235c0.996-0.41,1.845-1.037,2.553-1.86
			c0.707-0.821,1.276-1.759,1.706-2.8c0.43-1.04,0.741-2.14,0.933-3.3c0.192-1.16,0.277-2.293,0.254-3.405
			c-0.025-1.111-0.157-2.158-0.397-3.152c-0.24-0.995-0.597-1.84-1.067-2.541c-0.472-0.702-1.074-1.2-1.812-1.498
			C305.881,387.021,305.014,387.009,304.012,387.285z"/>
		<path fill="#FFFFFF" d="M315.843,380.955c1.075-0.346,2.147-0.698,3.216-1.061c0.092,6.037,0.182,12.075,0.271,18.114
			c3.03-1.663,6.012-3.442,8.938-5.34c0,0.96,0,1.92,0,2.88c-3.906,2.717-7.922,5.209-12.025,7.476
			C316.109,395.668,315.976,388.312,315.843,380.955z"/>
	</g>
</g>
<text transform="matrix(1 0 0 1 93.3276 276.791)" fill="#FFFFFF" font-family="'HelveticaNeue-Bold'" font-size="79.4319">S</text>
<text transform="matrix(1 0 0 1 351.3281 276.791)" fill="#FFFFFF" font-family="'HelveticaNeue-Bold'" font-size="79.4319">P</text>
</svg>
